<svg width="65" height="61" viewBox="0 0 65 61" fill="none" xmlns="http://www.w3.org/2000/svg">
<path d="M64.067 0.4105L48.388 55.9541C48.3082 56.2062 47.9893 56.2819 47.8033 56.1054L37.3064 46.1464L45.1724 18.3115C45.2283 18.135 45.1277 17.9708 44.9712 17.9142C45.127 17.9712 45.2268 18.135 45.1711 18.311L37.3052 46.1453L37.3064 46.1464L33.2665 60.5171C33.1868 60.7693 32.8679 60.8449 32.6818 60.6684L0.101381 29.7828C-0.0846408 29.6063 -0.00491741 29.3038 0.260829 29.2281L15.4077 25.3708L4.96507 15.4625C4.77905 15.286 4.85878 14.9834 5.12452 14.9078L63.6418 0.0070964C63.9075 -0.043329 64.1467 0.183585 64.067 0.4105Z" fill="#00B37E"/>
</svg>
